<svg xmlns="http://www.w3.org/2000/svg" height="40.365" width="51.787" viewBox="0 0 51.786503 40.365036"><ellipse ry="20.183" rx="19.895" cy="20.183" cx="31.892" fill="#bcc0c1" fill-opacity=".657"/><path d="M14 16.588c-1.938.375-8 4-8 4s-6-.25-6 3c0 3.75 5 5 5 5s4.5 4 11 4 11.188-4 13-4c1.188 0 1 1 1 1 0 1.875-4.188 4-8 4-3.812 0-3.938-1-6-1s-2 2-2 2-.063 5 14 5h4l15-18c-2.375-4.083-9-6-9-6s-1.5-6-3-6-4 5-4 5H21s-2.25-5-4-5-3 7-3 7z" fill="#ffc400"/><path d="M27.959 31.44c.016-.008-.162.08-.403.178-.247.097-.595.226-1.014.352-.837.257-1.961.499-3.085.625-1.125.132-2.247.14-3.078.096-.833-.034-1.379-.103-1.379-.103s.55-.057 1.357-.207a18.315 18.315 0 0 0 2.878-.76 16.556 16.556 0 0 0 2.646-1.203c.338-.194.603-.37.782-.493.181-.128.238-.182.253-.191a1 1 0 0 1 1.043 1.707zM32.827 14.503s-1.351-10-3.35-10c-2.277 0-3.74 3.214-3.74 3.214s-1.2-2.236-2.52-2.236c-2.66 0-2.39 10.022-2.39 10.022s-2.728 1.415-2.728 2.278c0 .677 3.043.722 6.728.722 9.917 0 10-1.692 10-2 0-.368-2-2-2-2z" fill="#212121"/></svg>