<svg xmlns="http://www.w3.org/2000/svg" width="927.724" height="937.796" viewBox="0 0 927.72414 937.79556"><circle cx="463.862" cy="463.862" r="463.862" fill="#bfc0c1" fill-opacity=".657"/><path d="M739.064 780.82c-50.921 16.96-151.3 51.906-24.062 19.061-6.07-6.85 1.646-47.127-1.463-60.657-3.1-13.52 11.815 7.255.715-2.195-9.213 24.021-43.184 35.316 8.415-12.788-2.2-1.92 6.147 9.188 3.877 7.837-2.279-1.35 15.209-42.047 12.9-42.917 15.43-45.76 9.38-91.33-6.2-132.5-19.11-50.54-52.48-94.57-77.97-124.69-28.53-35.99-56.431-70.15-55.88-120.61.849-77.01 8.469-219.82-127.051-220.01-5.51-.01-11.26.22-17.25.7-151.44 12.19-111.27 172.19-113.52 225.76-2.77 39.18-10.71 70.06-37.66 108.36-31.65 37.64-76.23 98.57-97.34 162-9.96 29.93-14.7 60.44-10.33 89.32-1.37 1.23 2.987 24.44 1.737 25.76-9.29 9.93-10.503 26.9-18.153 34.99-7.15 7.14-10.966 16.215-22.166 20.224-11.2 4.02-5.106-14.102-12.566.218 0 0 11.314 6.375 11.304 6.375-.01.02 26.143 12.778 26.123 12.797-3.51 6.55-25.863-6.886-25.863.284 0 6.63 17.95 16.18 18.94 22.648 2.06 13.46-27.67 28.31-30.44 36.931-8.86 24.23 74.853 16.939 81.093 29.1 6.26 12.18-36.751.58-22.221 3.62 29.06 6.06 1.942 7.388 32.952 23.828l7.62 4.162 9.38-14.052c33.2 17.36 43.526 27.764 70.376 21.633 19.48-4.44 27.502-6.847 49.764-2.767 21-.1 44.05-9 80.97-11.03 25.05-2.02 56.34 8.9 92.33 6.9 23.567-4.586 50.384-14.968 52.243-11.398 32.548-11.285 7.111 10.676 7.132 10.707 13.95 27.9 1.686 6.011 29.317 3.831 27.659-2.18-9.4 11.209 14.381-17.081-6.638 3.49 36.22-10.925 29.582-24.873l.855 19.883c22.66-27.48 39.764-33.92 64.714-48.96 12.47-7.52 6.316-19.767 7.106-33.448.778-13.67 4.77 3.536-13.69-16.954z" fill="#212121"/><path d="M797.235 816.922c-.48 8.439-6.59 14.71-17.88 21.51-22.561 13.61-62.551 25.45-88.08 56.38-22.181 26.39-49.221 40.88-73.03 42.76-23.81 1.88-44.35-8-56.47-32.31l-.021-.05-.03-.061c-7.52-14.3-4.39-36.85 1.94-60.65 6.33-23.79 15.43-48.23 16.65-68.08v-.06c1.279-25.44 2.71-47.66 6.979-64.81 4.28-17.15 12.01-24.25 22.93-35.28 18.207-11.918 39.545-17.787 57.242-13.716 21.1 5.561 28.883 14.33 40.309 34.916 2.569-.101 5.069-.23 7.5-.29 11.27-.271 20.71.38 30.37 8.82l.029.029.03.02c7.42 6.29 10.95 18.17 14.01 31.47 3.06 13.312 5.5 27.8 14.68 38.13l.01.01.01.022c17.642 19.57 23.312 32.79 22.822 41.24zM368.485 879.302l-.01.06v.07c-2.04 26.74-17.12 41.3-40.28 46.59-23.14 5.29-54.53.02-85.87-16.37-.01 0-.02-.01-.03-.01-34.68-18.37-75.93-16.54-102.4-22.07-13.23-2.76-21.87-6.92-25.83-14.64-3.96-7.73-4.05-21.2 4.37-44.17l.04-.101.03-.1c4.17-12.85 1.08-26.91-.94-40.11-2.02-13.19-3.01-25.2 1.5-33.56l.04-.08c5.77-11.12 14.23-15.1 24.73-18.86 10.51-3.77 22.96-6.73 32.79-16.59l.06-.05.05-.05c9.09-9.59 15.92-21.62 23.91-30.15 6.74-7.2 13.49-11.97 23.66-12.04.12.01.23.01.35 0 1.78.01 3.67.16 5.67.47 13.5 2.04 25.27 11.48 36.61 26.86l32.74 59.67.01.03.02.02c8.71 18.19 27.11 38.2 42.7 58.61 15.59 20.4 27.65 40.89 26.08 56.57z" fill="#ffb900"/><path d="M531.765 323.041c-2.63-5.15-8-10.05-17.14-13.8l-.02-.01-.03-.01c-19.01-8.14-27.26-8.72-37.87-15.62-17.27-11.1-31.54-14.99-43.4-14.94-6.21.02-11.76 1.12-16.73 2.84-14.45 4.97-24.04 15.34-30.05 21.03l-.01.01c0 .01-.01.01-.01.02-1.18 1.12-2.7 2.14-6.38 4.84-3.71 2.71-9.27 6.79-17.27 12.79-7.11 5.33-9.42 12.27-6.96 20.4 2.45 8.13 10.29 17.51 24.63 25.62l.02.02.03.01c8.9 5.23 14.98 12.28 21.96 17.89 3.49 2.8 7.16 5.3 11.58 7.19 4.42 1.89 9.58 3.17 16.04 3.55 15.16.88 26.32-3.67 36.17-9.31 9.87-5.63 18.229-12.52 27.82-15.63l.02-.01.02-.01c19.66-6.14 33.68-18.51 38.07-30.26 2.2-5.88 2.13-11.46-.49-16.61z" fill="#ffc400"/></svg>